<svg xmlns="http://www.w3.org/2000/svg" width="24" height="24" viewBox="0 0 24 24">
    <g fill="#000" fill-rule="nonzero">
        <path d="M2.755 6.671h18.49A.75.75 0 0 0 22 5.93a.75.75 0 0 0-.755-.743H2.755A.75.75 0 0 0 2 5.929c0 .41.338.742.755.742zM2.604 12.243h14.792c.334 0 .604-.333.604-.743s-.27-.743-.604-.743H2.604c-.334 0-.604.333-.604.743s.27.743.604.743zM2.453 17.814h11.094c.25 0 .453-.333.453-.743s-.203-.742-.453-.742H2.453c-.25 0-.453.332-.453.742s.203.743.453.743z"/>
    </g>
</svg>
