<?xml version="1.0" encoding="UTF-8"?>
<svg width="24px" height="24px" viewBox="0 0 24 24" version="1.1" xmlns="http://www.w3.org/2000/svg" xmlns:xlink="http://www.w3.org/1999/xlink">
    <!-- Generator: sketchtool 50.2 (55047) - http://www.bohemiancoding.com/sketch -->
    <title>9FA87B63-ABCD-49BF-B52A-390C0580CF56</title>
    <desc>Created with sketchtool.</desc>
    <defs></defs>
    <g id="Page-1" stroke="none" stroke-width="1" fill="none" fill-rule="evenodd" opacity="0.7">
        <g id="3" transform="translate(-16.000000, -40.000000)">
            <g id="Bar/Top" transform="translate(0.000000, 24.000000)">
                <g id="Left/arrow" transform="translate(16.000000, 16.000000)">
                    <g>
                        <rect id="Rectangle" stroke="#979797" stroke-width="1.2" fill="#D8D8D8" opacity="0" x="0.6" y="0.6" width="22.8" height="22.8"></rect>
                        <path d="M20.0340858,11.3467737 L7.30536502,11.3467737 L10.6939852,7.75702972 C11.0720923,7.35643272 11.0735412,6.70541119 10.697221,6.30291197 C10.3209009,5.90036134 9.709284,5.89887041 9.33117688,6.299416 L4.28408199,11.6461932 C3.90607147,12.047767 3.90486407,12.7008964 4.28311608,13.1028301 C4.28334146,13.1030358 5.96599619,14.8856204 9.33108029,18.4505841 C9.70913911,18.8510783 10.320756,18.8496902 10.6971245,18.4470881 C11.0734446,18.0445889 11.0719958,17.3935674 10.6938886,16.9929704 L7.30536502,13.4032264 L20.0340858,13.4032264 C20.5675602,13.4032264 21,12.9428895 21,12.3750001 C21,11.8071106 20.5675602,11.3467737 20.0340858,11.3467737 Z" id="Shape" fill="#000000" fill-rule="nonzero"></path>
                    </g>
                </g>
            </g>
        </g>
    </g>
</svg>