<?xml version="1.0" encoding="UTF-8"?>
<svg width="90px" height="56px" viewBox="0 0 90 56" version="1.1" xmlns="http://www.w3.org/2000/svg" xmlns:xlink="http://www.w3.org/1999/xlink">
    <!-- Generator: sketchtool 50.2 (55047) - http://www.bohemiancoding.com/sketch -->
    <title>859F548C-1C3A-4C72-A70F-2960CCCD2A58</title>
    <desc>Created with sketchtool.</desc>
    <defs></defs>
    <g id="Page-1" stroke="none" stroke-width="1" fill="none" fill-rule="evenodd" opacity="0.6">
        <g id="2" transform="translate(-270.000000, -584.000000)">
            <g id="Bottom4" transform="translate(270.000000, 584.000000)">
                <rect id="Rectangle-8" fill="#FFFFFF" x="0" y="0" width="90" height="56"></rect>
                <g id="Group-4" transform="translate(33.000000, 16.000000)">
                    <g id="Group-5">
                        <rect id="Rectangle-9" stroke="#979797" fill="#D8D8D8" opacity="0" x="0.5" y="0.5" width="23" height="23"></rect>
                        <g id="settings-5" transform="translate(3.000000, 3.000000)" fill="#000000" fill-rule="nonzero" stroke="#000000" stroke-width="0.3">
                            <path d="M18.0162839,7.50087474 L16.6835073,7.27477871 C16.5446764,6.82655324 16.3661795,6.39419415 16.1480167,5.98166806 L16.9334029,4.88292067 C17.2665971,4.41486221 17.2150313,3.77624008 16.8064718,3.37164718 L15.6244259,2.18960125 C15.4022965,1.96747182 15.1087683,1.84450731 14.7954071,1.84450731 C14.5494781,1.84450731 14.3154489,1.91987265 14.117119,2.06267015 L13.014405,2.84805637 C12.5860125,2.62196033 12.1377871,2.43553027 11.6736952,2.29669937 L11.4515658,0.979789144 C11.3563674,0.412565762 10.868476,3.96659708e-05 10.2933194,3.96659708e-05 L8.62338205,3.96659708e-05 C8.04822547,3.96659708e-05 7.56033403,0.412565762 7.4651357,0.979789144 L7.23507307,2.32843215 C6.7908142,2.46726305 6.35845511,2.64972651 5.94592902,2.87185595 L4.85511482,2.08646973 C4.65678497,1.94367223 4.41878914,1.86830689 4.17286013,1.86830689 C3.85949896,1.86830689 3.56200418,1.9912714 3.34384134,2.21340084 L2.15782881,3.39544676 C1.75323591,3.80003967 1.69770355,4.4386618 2.0308977,4.90672025 L2.82421712,6.02133403 C2.60605428,6.43782672 2.43152401,6.8701858 2.29665971,7.31841127 L0.979749478,7.54054071 C0.412526096,7.63573904 -2.84217094e-14,8.12363048 -2.84217094e-14,8.69878706 L-2.84217094e-14,10.3687244 C-2.84217094e-14,10.943881 0.412526096,11.4317724 0.979749478,11.5269708 L2.32839248,11.7570334 C2.46722338,12.2012923 2.64968685,12.6336514 2.87181628,13.0461775 L2.09039666,14.1330251 C1.75720251,14.6010835 1.80876827,15.2397056 2.21732777,15.6442985 L3.3993737,16.8263445 C3.62150313,17.0484739 3.91503132,17.1714384 4.22839248,17.1714384 C4.4743215,17.1714384 4.70835073,17.0960731 4.90668058,16.9532756 L6.02129436,16.1599562 C6.42192067,16.3701858 6.84237996,16.5407495 7.27473904,16.6756138 L7.49686848,18.0083904 C7.59206681,18.5756138 8.07995825,18.9881399 8.65511482,18.9881399 L10.3290188,18.9881399 C10.9041754,18.9881399 11.3920668,18.5756138 11.4872651,18.0083904 L11.7133612,16.6756138 C12.1615866,16.5367829 12.5939457,16.358286 13.0064718,16.1401232 L14.1052192,16.9255094 C14.3035491,17.0683069 14.5415449,17.1436722 14.7874739,17.1436722 C15.1008351,17.1436722 15.3943633,17.0207077 15.6164927,16.7985783 L16.7985386,15.6165324 C17.2031315,15.2119395 17.2586639,14.5733173 16.9254697,14.1052589 L16.1400835,13.0025449 C16.3582463,12.5860522 16.5407098,12.1536931 16.6755741,11.7094342 L18.0083507,11.4873048 C18.5755741,11.3921065 18.9881002,10.904215 18.9881002,10.3290585 L18.9881002,8.65912109 C18.9960334,8.08396451 18.5835073,7.59607307 18.0162839,7.50087474 Z M17.9250522,10.3290585 C17.9250522,10.3806242 17.8893528,10.4242568 17.8377871,10.43219 L16.1718163,10.7098518 C15.9615866,10.7455511 15.7949896,10.9002484 15.7434238,11.1025449 C15.5926931,11.6856347 15.3626305,12.2449248 15.0532359,12.7645491 C14.9461378,12.9470125 14.954071,13.1731086 15.0770355,13.3476388 L16.056785,14.7280146 C16.0845511,14.7676806 16.0805846,14.8271795 16.0448852,14.8628789 L14.8628392,16.0449248 C14.8350731,16.072691 14.8073069,16.0766576 14.7874739,16.0766576 C14.7636743,16.0766576 14.7438413,16.0687244 14.7279749,16.0568246 L13.3515658,15.0770752 C13.1810021,14.9541106 12.9509395,14.9461775 12.768476,15.0532756 C12.2488518,15.3626701 11.6895616,15.5927328 11.1064718,15.7434635 C10.9002088,15.7950292 10.7455115,15.9655929 10.7137787,16.1718559 L10.4321503,17.8378267 C10.4242171,17.8893925 10.3805846,17.9250919 10.3290188,17.9250919 L8.65908142,17.9250919 C8.60751566,17.9250919 8.56388309,17.8893925 8.5559499,17.8378267 L8.2782881,16.1718559 C8.24258873,15.9616263 8.08789144,15.7950292 7.88559499,15.7434635 C7.31837161,15.5966994 6.77098121,15.3706033 6.25929019,15.0770752 C6.17599165,15.029476 6.08079332,15.0056764 5.98956159,15.0056764 C5.88246347,15.0056764 5.77139875,15.0374092 5.68016701,15.1048413 L4.29185804,16.092524 C4.27202505,16.1044238 4.25219207,16.112357 4.23235908,16.112357 C4.21649269,16.112357 4.18475992,16.1083904 4.15699374,16.0806242 L2.97494781,14.8985783 C2.93924843,14.8628789 2.93528184,14.8073466 2.96304802,14.763714 L3.9388309,13.395238 C4.06179541,13.2207077 4.0697286,12.9906451 3.96263048,12.8081816 C3.65323591,12.292524 3.41524008,11.7332338 3.26450939,11.1501441 C3.20897704,10.9478476 3.04237996,10.7931503 2.83611691,10.7574509 L1.15824635,10.4718559 C1.10668058,10.4639228 1.07098121,10.4202902 1.07098121,10.3687244 L1.07098121,8.69878706 C1.07098121,8.64722129 1.10668058,8.60358873 1.15824635,8.59565553 L2.81231733,8.31799374 C3.02254697,8.28229436 3.19311065,8.12759708 3.24467641,7.92133403 C3.3914405,7.33824426 3.61753653,6.77498747 3.92296451,6.25536326 C4.03006263,6.07289979 4.01816284,5.84680376 3.89519833,5.67624008 L2.90751566,4.28793111 C2.87974948,4.24826514 2.88371608,4.18876618 2.91941545,4.15306681 L4.10146138,2.97102088 C4.12922756,2.9432547 4.15699374,2.9392881 4.17682672,2.9392881 C4.2006263,2.9392881 4.22045929,2.94722129 4.23632568,2.95912109 L5.60480167,3.93490397 C5.77933194,4.05786848 6.00939457,4.06580167 6.19185804,3.95870355 C6.70751566,3.64930898 7.26680585,3.41131315 7.84989562,3.26058246 C8.05219207,3.2050501 8.20688935,3.03845303 8.24258873,2.83218998 L8.52818372,1.15431942 C8.53611691,1.10275365 8.57974948,1.06705428 8.63131524,1.06705428 L10.3012526,1.06705428 C10.3528184,1.06705428 10.3964509,1.10275365 10.4043841,1.15431942 L10.6820459,2.8083904 C10.7177453,3.01862004 10.8724426,3.18918372 11.0787056,3.24074948 C11.6776618,3.39148017 12.2488518,3.62550939 12.7803758,3.93887056 C12.9628392,4.04596868 13.1889353,4.03803549 13.3634656,3.91507098 L14.7319415,2.93135491 C14.7517745,2.91945511 14.7716075,2.91152192 14.7914405,2.91152192 C14.8073069,2.91152192 14.8390397,2.91548852 14.8668058,2.9432547 L16.0488518,4.12530063 C16.0845511,4.161 16.0885177,4.21653236 16.0607516,4.26016493 L15.0810021,5.63657411 C14.9580376,5.80713779 14.9501044,6.03720042 15.0572025,6.21966388 C15.3665971,6.7392881 15.5966597,7.29857829 15.7473904,7.88166806 C15.7989562,8.08793111 15.9695198,8.24262839 16.1757829,8.27436117 L17.8417537,8.55598956 C17.8933194,8.56392276 17.9290188,8.60755532 17.9290188,8.65912109 L17.9290188,10.3290585 L17.9250522,10.3290585 Z" id="Shape"></path>
                            <path d="M9.4960334,5.39461169 C7.23507307,5.39461169 5.39853862,7.23114614 5.39853862,9.49210647 C5.39853862,11.7530668 7.23507307,13.5896013 9.4960334,13.5896013 C11.7569937,13.5896013 13.5935282,11.7530668 13.5935282,9.49210647 C13.5935282,7.23114614 11.7569937,5.39461169 9.4960334,5.39461169 Z M9.4960334,12.51862 C7.82609603,12.51862 6.46951983,11.1620438 6.46951983,9.49210647 C6.46951983,7.8221691 7.82609603,6.4655929 9.4960334,6.4655929 C11.1659708,6.4655929 12.522547,7.8221691 12.522547,9.49210647 C12.522547,11.1620438 11.1659708,12.51862 9.4960334,12.51862 Z" id="Shape"></path>
                        </g>
                    </g>
                </g>
            </g>
        </g>
    </g>
</svg>