<?xml version="1.0" encoding="UTF-8"?>
<svg width="90px" height="56px" viewBox="0 0 90 56" version="1.1" xmlns="http://www.w3.org/2000/svg" xmlns:xlink="http://www.w3.org/1999/xlink">
    <!-- Generator: sketchtool 50.2 (55047) - http://www.bohemiancoding.com/sketch -->
    <title>0D5FAE72-F22C-49B8-BA7B-9409A5B57979</title>
    <desc>Created with sketchtool.</desc>
    <defs></defs>
    <g id="Page-1" stroke="none" stroke-width="1" fill="none" fill-rule="evenodd" opacity="0.6">
        <g id="2" transform="translate(0.000000, -584.000000)">
            <g id="Bottom1" transform="translate(0.000000, 584.000000)">
                <rect id="Rectangle-8" fill="#FFFFFF" x="0" y="0" width="90" height="56"></rect>
                <g id="home-3" transform="translate(36.000000, 18.000000)" fill="#000000" fill-rule="nonzero">
                    <path d="M17.7567568,7.58536585 L9.48648649,0.243902439 C9.21891892,-6.9388939e-18 8.80540541,-6.9388939e-18 8.51351351,0.243902439 L0.243243243,7.58536585 C0.0972972973,7.73170732 0,7.92682927 0,8.12195122 L0,19.2195122 C0,19.6341463 0.316216216,19.9512195 0.72972973,19.9512195 L17.2702703,19.9512195 C17.6837838,19.9512195 18,19.6341463 18,19.2195122 L18,8.12195122 C18,7.90243902 17.9027027,7.70731707 17.7567568,7.58536585 Z M10.727027,18.4878049 L7.27297297,18.4878049 L7.27297297,13.4878049 L10.727027,13.4878049 L10.727027,18.4878049 Z M16.5405405,18.4878049 L12.1864865,18.4878049 L12.1864865,12.7560976 C12.1864865,12.3414634 11.8702703,12.0243902 11.4567568,12.0243902 L6.54324324,12.0243902 C6.12972973,12.0243902 5.81351351,12.3414634 5.81351351,12.7560976 L5.81351351,18.4878049 L1.45945946,18.4878049 L1.45945946,8.46341463 L9,1.7804878 L16.5405405,8.46341463 L16.5405405,18.4878049 Z" id="Shape"></path>
                </g>
            </g>
        </g>
    </g>
</svg>