<?xml version="1.0" encoding="utf-8"?>
<!-- Generator: Adobe Illustrator 16.0.0, SVG Export Plug-In . SVG Version: 6.00 Build 0)  -->
<!DOCTYPE svg PUBLIC "-//W3C//DTD SVG 1.1//EN" "http://www.w3.org/Graphics/SVG/1.1/DTD/svg11.dtd">
<svg version="1.1" id="레이어_1" xmlns="http://www.w3.org/2000/svg" xmlns:xlink="http://www.w3.org/1999/xlink" x="0px"
	 y="0px" width="18.008px" height="18.1px" viewBox="0 0 18.008 18.1" enable-background="new 0 0 18.008 18.1"
	 xml:space="preserve">
<g>
	<g>
		<path fill="#A0A0A0" d="M16.113,10.294c0.044-0.208,0.063-0.229,0.276-0.269c0.495-0.093,0.979-0.18,1.475-0.271
			c0.069-0.013,0.144-0.04,0.144-0.1c0-0.593,0-1.185,0-1.776c0-0.094-0.11-0.098-0.187-0.111c-0.491-0.087-0.979-0.174-1.469-0.262
			c-0.193-0.035-0.224-0.064-0.265-0.252c-0.057-0.26-0.122-0.518-0.209-0.77c-0.058-0.176-0.042-0.235,0.101-0.354
			c0.404-0.34,0.806-0.682,1.211-1.023c0.123-0.104,0.134-0.142,0.054-0.281c-0.255-0.438-0.504-0.88-0.765-1.316
			c-0.094-0.156-0.11-0.16-0.281-0.099c-0.499,0.178-0.996,0.358-1.492,0.542c-0.137,0.051-0.234,0.029-0.337-0.082
			c-0.192-0.209-0.39-0.411-0.604-0.599c-0.083-0.072-0.109-0.155-0.074-0.26c0.076-0.224,0.159-0.447,0.237-0.67
			c0.109-0.311,0.223-0.621,0.331-0.932c0.035-0.102,0.01-0.17-0.083-0.221c-0.113-0.064-0.227-0.129-0.341-0.195
			c-0.328-0.192-0.657-0.384-0.987-0.574c-0.157-0.087-0.193-0.08-0.313,0.058c-0.008,0.009-0.015,0.021-0.023,0.03
			c-0.326,0.393-0.662,0.779-0.984,1.176c-0.101,0.123-0.209,0.152-0.357,0.096c-0.233-0.089-0.475-0.16-0.721-0.2
			c-0.189-0.032-0.272-0.126-0.305-0.311C10.062,0.773,9.97,0.512,9.877,0.018C9.865-0.051,9.837,0.1,9.778,0.1
			c-0.593,0-1.185,0-1.776,0c-0.065,0-0.096-0.145-0.105-0.071C7.886,0.1,7.873,0.054,7.859,0.125
			C7.78,0.566,7.706,0.95,7.625,1.389C7.604,1.5,7.563,1.558,7.436,1.583C7.135,1.646,6.834,1.706,6.542,1.805
			c-0.101,0.035-0.183,0-0.252-0.075C6.219,1.65,6.152,1.563,6.086,1.483c-0.283-0.336-0.565-0.675-0.851-1.01
			C5.121,0.339,5.091,0.336,4.934,0.426C4.521,0.659,4.112,0.895,3.702,1.132C3.463,1.274,3.467,1.274,3.565,1.542
			C3.735,2.01,3.902,2.48,4.068,2.951C4.105,3.058,4.102,3.15,4.012,3.227C3.783,3.422,3.576,3.641,3.37,3.858
			C3.262,3.97,3.16,3.985,3.02,3.932C2.532,3.75,2.042,3.576,1.553,3.401C1.421,3.354,1.385,3.364,1.314,3.485
			C1.062,3.918,0.81,4.354,0.561,4.792c-0.109,0.189-0.104,0.2,0.065,0.346c0.385,0.324,0.771,0.645,1.15,0.977
			c0.11,0.094,0.129,0.156,0.081,0.289c-0.104,0.288-0.184,0.581-0.244,0.88c-0.028,0.138-0.1,0.208-0.242,0.232
			C0.904,7.598,0.566,7.678,0.101,7.764C0.017,7.78,0.008,7.775,0.008,7.879c0,0.592,0,1.184,0,1.776
			c0,0.065-0.034,0.089,0.037,0.102c0.481,0.087,0.902,0.179,1.384,0.262c0.146,0.026,0.188,0.098,0.214,0.243
			c0.05,0.293,0.117,0.577,0.205,0.86c0.058,0.181,0.039,0.216-0.105,0.338c-0.37,0.314-0.748,0.627-1.12,0.939
			c-0.16,0.136-0.166,0.158-0.063,0.337c0.24,0.424,0.486,0.841,0.727,1.264c0.102,0.18,0.113,0.184,0.307,0.116
			c0.458-0.16,0.916-0.323,1.372-0.492c0.153-0.058,0.263-0.033,0.368,0.093c0.18,0.218,0.377,0.422,0.595,0.604
			c0.164,0.14,0.173,0.191,0.098,0.396c-0.159,0.441-0.322,0.882-0.477,1.325c-0.079,0.222-0.074,0.226,0.122,0.339
			c0.418,0.238,0.835,0.482,1.253,0.722c0.175,0.1,0.194,0.095,0.327-0.06c0.306-0.361,0.61-0.724,0.918-1.083
			c0.156-0.184,0.18-0.192,0.414-0.11c0.253,0.087,0.512,0.15,0.771,0.211c0.243,0.056,0.262,0.075,0.304,0.316
			c0.078,0.446,0.16,0.988,0.235,1.434c0.013,0.078,0.031,0.289,0.11,0.289c0.592,0,1.184,0,1.776,0c0.06,0,0.087-0.182,0.099-0.251
			c0.091-0.485,0.177-1.022,0.266-1.509c0.023-0.129,0.092-0.222,0.221-0.25c0.244-0.051,0.485-0.124,0.723-0.201
			c0.395-0.129,0.336-0.145,0.612,0.179c0.291,0.339,0.581,0.677,0.868,1.021c0.069,0.084,0.14,0.106,0.24,0.047
			c0.449-0.262,0.901-0.518,1.349-0.781c0.143-0.086,0.149-0.112,0.095-0.266c-0.174-0.483-0.349-0.969-0.525-1.455
			c-0.046-0.121-0.039-0.219,0.063-0.308c0.242-0.211,0.461-0.444,0.679-0.682c0.07-0.076,0.147-0.086,0.241-0.054
			c0.229,0.078,0.455,0.16,0.682,0.24c0.283,0.102,0.563,0.205,0.848,0.304c0.102,0.035,0.173,0.021,0.228-0.081
			c0.062-0.11,0.127-0.219,0.192-0.329c0.194-0.333,0.382-0.668,0.577-0.998c0.091-0.153,0.08-0.193-0.055-0.312
			c-0.013-0.012-0.025-0.021-0.039-0.031c-0.385-0.324-0.767-0.65-1.156-0.97c-0.109-0.089-0.136-0.188-0.089-0.323
			C15.986,10.831,16.057,10.564,16.113,10.294z M8.878,13.883c-2.845,0-5.109-2.274-5.106-5.128C3.775,5.91,6.049,3.647,8.9,3.65
			c2.846,0.003,5.108,2.276,5.105,5.129C14.004,11.624,11.731,13.887,8.878,13.883z"/>
		<path fill="#A0A0A0" d="M8.9,7.061C7.942,7.059,7.187,7.805,7.184,8.759c-0.003,0.956,0.745,1.712,1.701,1.714
			s1.709-0.75,1.711-1.703C10.596,7.819,9.849,7.065,8.9,7.061z"/>
	</g>
</g>
</svg>
