<?xml version="1.0" encoding="UTF-8"?>
<svg width="16px" height="19px" viewBox="0 0 16 19" version="1.1" xmlns="http://www.w3.org/2000/svg" xmlns:xlink="http://www.w3.org/1999/xlink">
    <!-- Generator: sketchtool 50.2 (55047) - http://www.bohemiancoding.com/sketch -->
    <title>06E2EC80-C833-4945-8311-D78C805DD577</title>
    <desc>Created with sketchtool.</desc>
    <defs></defs>
    <g id="Page-1" stroke="none" stroke-width="1" fill="none" fill-rule="evenodd">
        <g id="5" transform="translate(-297.000000, -267.000000)" fill="#F5627A" fill-rule="nonzero">
            <g id="Bookmark_on" transform="translate(297.000000, 267.000000)">
                <path d="M15.7440874,0.628011574 C15.5817705,0.393458333 15.3631913,0.221930556 15.0888306,0.11312037 C14.9140984,0.0378680556 14.7309727,0.000175925926 14.539541,0.000175925926 L14.539541,0 L1.45914754,0 C1.26780328,0 1.08485246,0.0376921296 0.910076503,0.112944444 C0.635540984,0.221666667 0.41704918,0.393414352 0.254819672,0.627835648 C0.0926338798,0.862256944 0.0114098361,1.12165972 0.0114098361,1.40635185 L0.0114098361,17.5923727 C0.0114098361,17.8771528 0.0926338798,18.1364676 0.254819672,18.3711088 C0.41704918,18.6054861 0.635540984,18.7771898 0.910076503,18.8858681 C1.0846776,18.9611204 1.26780328,18.9987245 1.45914754,18.9987245 C1.85036066,18.9987245 2.19549727,18.8605347 2.49512568,18.5845069 L7.99938798,13.2600208 L13.5036503,18.5846389 C13.794929,18.8520903 14.1402404,18.9860579 14.5394973,18.9860579 C14.7475847,18.9860579 14.9306667,18.9528079 15.0887869,18.8858241 C15.3631475,18.7771458 15.5817268,18.6054421 15.7440437,18.3707569 C15.9062295,18.1364236 15.9872787,17.8770648 15.9872787,17.5923287 L15.9872787,1.40652778 C15.9873224,1.12183565 15.9060984,0.86243287 15.7440874,0.628011574 Z" id="Shape"></path>
            </g>
        </g>
    </g>
</svg>