<?xml version="1.0" encoding="UTF-8"?>
<svg width="16px" height="20px" viewBox="0 0 16 20" version="1.1" xmlns="http://www.w3.org/2000/svg" xmlns:xlink="http://www.w3.org/1999/xlink">
    <!-- Generator: sketchtool 50.2 (55047) - http://www.bohemiancoding.com/sketch -->
    <title>5415EB04-3108-4277-93FD-E8CBD491E92A</title>
    <desc>Created with sketchtool.</desc>
    <defs></defs>
    <g id="Page-1" stroke="none" stroke-width="1" fill="none" fill-rule="evenodd">
        <g id="3" transform="translate(-30.000000, -596.000000)" fill="#FFFFFF" fill-rule="nonzero">
            <g id="Share" transform="translate(30.000000, 596.000000)">
                <path d="M15.2262148,8 L11.8950551,8 C11.4622686,8 11.1081706,8.34105348 11.1081706,8.75789661 C11.1081706,9.17473975 11.4622686,9.51579323 11.8950551,9.51579323 L14.4261847,9.51579323 L14.4261847,18.4842514 L1.57376897,18.4842514 L1.57376897,9.51579323 L4.3672089,9.51579323 C4.79999537,9.51579323 5.15409339,9.17473975 5.15409339,8.75789661 C5.15409339,8.34105348 4.79999537,8 4.3672089,8 L0.773785175,8 C0.340998707,8 0,8.37894831 0,8.79579144 L0,19.3052763 C0,19.7221194 0.340998707,20 0.773785175,20 L15.2262148,20 C15.6590013,20 16,19.7221194 16,19.3052763 L16,8.79579144 C16,8.37894831 15.6590013,8 15.2262148,8 Z" id="Shape"></path>
                <path d="M7.70370133,14 C8.12361818,14 8.46718651,13.6423492 8.46718651,13.2052204 L8.46718651,2.43595727 L11.7247083,5.45611963 C11.8646956,5.58856731 12.0555669,5.65481452 12.2336835,5.65481452 C12.4500193,5.65481452 12.6536003,5.56210582 12.8062974,5.38987241 C13.086227,5.05872984 13.0608074,4.55535387 12.7426586,4.26395028 L8.35261883,0.197343729 C8.07268923,-0.054320884 7.66548216,-0.067598378 7.37279787,0.170835493 C7.23281061,0.237082707 7.11828784,0.356299643 7.04193932,0.488747321 L3.23722318,4.29045851 C2.93182911,4.5951396 2.91911932,5.09846882 3.2117587,5.41638065 C3.50444299,5.73429248 3.98795367,5.74752322 4.29334774,5.44288889 L6.94008141,2.79360807 L6.94008141,13.2052204 C6.94021615,13.6423492 7.28378448,14 7.70370133,14 Z" id="Shape"></path>
            </g>
        </g>
    </g>
</svg>