<?xml version="1.0" encoding="UTF-8"?>
<svg width="14px" height="14px" viewBox="0 0 14 14" version="1.1" xmlns="http://www.w3.org/2000/svg" xmlns:xlink="http://www.w3.org/1999/xlink">
    <!-- Generator: sketchtool 50.2 (55047) - http://www.bohemiancoding.com/sketch -->
    <title>29A80A69-EFD2-440F-8B78-6964D81B2AB6</title>
    <desc>Created with sketchtool.</desc>
    <defs></defs>
    <g id="Page-1" stroke="none" stroke-width="1" fill="none" fill-rule="evenodd" opacity="0.699999988">
        <g id="2" transform="translate(-289.000000, -264.000000)">
            <g id="Ic/plus" transform="translate(284.000000, 259.000000)">
                <rect id="Rectangle-9-Copy" stroke="#979797" fill="#D8D8D8" opacity="0" x="0.5" y="0.5" width="23" height="23"></rect>
                <g id="plus-2" transform="translate(6.000000, 6.000000)" fill="#000000" fill-rule="nonzero" stroke="#000000" stroke-width="0.6">
                    <path d="M11.53125,5.53125 L6.46875,5.53125 L6.46875,0.46875 C6.46875,0.209859375 6.25889062,0 6,0 C5.74110938,0 5.53125,0.209859375 5.53125,0.46875 L5.53125,5.53125 L0.46875,5.53125 C0.209859375,5.53125 0,5.74110938 0,6 C0,6.25889062 0.209859375,6.46875 0.46875,6.46875 L5.53125,6.46875 L5.53125,11.53125 C5.53125,11.7901406 5.74110938,12 6,12 C6.25889062,12 6.46875,11.7901406 6.46875,11.53125 L6.46875,6.46875 L11.53125,6.46875 C11.7901406,6.46875 12,6.25889062 12,6 C12,5.74110938 11.7901406,5.53125 11.53125,5.53125 Z" id="Shape"></path>
                </g>
            </g>
        </g>
    </g>
</svg>