<?xml version="1.0" encoding="utf-8"?>
<!-- Generator: Adobe Illustrator 16.0.0, SVG Export Plug-In . SVG Version: 6.00 Build 0)  -->
<!DOCTYPE svg PUBLIC "-//W3C//DTD SVG 1.1//EN" "http://www.w3.org/Graphics/SVG/1.1/DTD/svg11.dtd">
<svg version="1.1" id="레이어_1" xmlns="http://www.w3.org/2000/svg" xmlns:xlink="http://www.w3.org/1999/xlink" x="0px"
	 y="0px" width="29.785px" height="24.322px" viewBox="0 0 29.785 24.322" enable-background="new 0 0 29.785 24.322"
	 xml:space="preserve">
<g>
	<path fill="#FFFFFF" d="M14.892,7.445c-3.282,0-5.956,2.672-5.956,5.957c0,3.284,2.674,5.956,5.956,5.956
		c3.285,0,5.959-2.672,5.959-5.956C20.851,10.117,18.177,7.445,14.892,7.445L14.892,7.445z M14.892,7.445"/>
	<path fill="#FFFFFF" d="M27.402,4.963H23.17L21.185,0H8.6L6.616,4.963H5.959v-2.48h-2.98v2.48H2.384C1.07,4.963,0,6.031,0,7.346
		v14.577c0,1.323,1.077,2.399,2.4,2.399h24.984c1.324,0,2.4-1.076,2.4-2.399V7.346C29.785,6.031,28.716,4.963,27.402,4.963
		L27.402,4.963z M4.965,4.963H3.972V3.477h0.993V4.963z M14.892,22.338c-4.926,0-8.933-4.011-8.933-8.936
		c0-4.927,4.007-8.938,8.933-8.938c4.929,0,8.936,4.011,8.936,8.938C23.827,18.327,19.82,22.338,14.892,22.338L14.892,22.338z
		 M25.814,10.921c-1.096,0-1.987-0.893-1.987-1.987c0-1.093,0.892-1.984,1.987-1.984c1.093,0,1.985,0.892,1.985,1.984
		C27.8,10.028,26.907,10.921,25.814,10.921L25.814,10.921z M25.814,10.921"/>
</g>
</svg>
