<?xml version="1.0" encoding="utf-8"?>
<!-- Generator: Adobe Illustrator 16.0.0, SVG Export Plug-In . SVG Version: 6.00 Build 0)  -->
<!DOCTYPE svg PUBLIC "-//W3C//DTD SVG 1.1//EN" "http://www.w3.org/Graphics/SVG/1.1/DTD/svg11.dtd">
<svg version="1.1" id="레이어_1" xmlns="http://www.w3.org/2000/svg" xmlns:xlink="http://www.w3.org/1999/xlink" x="0px"
	 y="0px" width="74.176px" height="52.684px" viewBox="602.834 377.038 74.176 52.684"
	 enable-background="new 602.834 377.038 74.176 52.684" xml:space="preserve">
<g>
	<path fill="#BFBFBF" d="M602.834,392.447l5.95,5.957c17.147-17.148,44.269-16.707,60.974,0c0.203,0.194,0.108-0.35,1.057,0.605
		l6.195-6.195c-0.946-0.955-0.701-0.247-0.819-0.367C656.062,372.32,623.795,371.486,602.834,392.447z"/>
	<path fill="#CCE535" d="M615.221,404.841l6.671,6.664c10.549-10.414,25.735-9.51,35.358,0.114c0.083,0.082-0.246-0.701,0.709,0.252
		l6.557-6.557c-0.954-0.954-0.632-0.164-0.715-0.246C650.535,391.802,628.689,391.632,615.221,404.841z"/>
	<path fill="#CCE535" d="M629.037,418.65l11.071,11.071l10.705-10.705c-0.955-0.954-0.627-0.172-0.702-0.254
		C644.428,413.086,634.816,413.004,629.037,418.65z"/>
</g>
</svg>
