<?xml version="1.0" encoding="utf-8"?>
<!-- Generator: Adobe Illustrator 16.0.0, SVG Export Plug-In . SVG Version: 6.00 Build 0)  -->
<!DOCTYPE svg PUBLIC "-//W3C//DTD SVG 1.1//EN" "http://www.w3.org/Graphics/SVG/1.1/DTD/svg11.dtd">
<svg version="1.1" id="레이어_1" xmlns="http://www.w3.org/2000/svg" xmlns:xlink="http://www.w3.org/1999/xlink" x="0px"
	 y="0px" width="396px" height="90px" viewBox="442.001 355 396 90" enable-background="new 442.001 355 396 90"
	 xml:space="preserve">
<g>
	<path fill="#CCE535" d="M513.099,355h-45.171c-6.73,0-13.287,2.637-18.146,7.425c-4.906,4.834-7.781,11.219-7.781,17.979V445h18
		v-30h60v30h18v-64.596C538,366.396,527.174,355,513.099,355z M520,397h-60v-16.596c0-4.057,3.777-7.404,7.928-7.404h45.171
		c4.12,0,6.901,3.348,6.901,7.404V397z"/>
	<path fill="#CCE535" d="M738,379.887C738,366.143,726.857,355,713.113,355h-44.228C655.143,355,644,366.143,644,379.887v40.227
		C644,433.857,655.143,445,668.887,445h44.228C726.857,445,738,433.857,738,420.113V379.887z M721,419.598
		c0,4.088-3.313,7.402-7.401,7.402h-44.196c-4.089,0-7.401-3.314-7.401-7.402v-40.195c0-4.088,3.313-7.402,7.401-7.402h44.196
		c4.088,0,7.401,3.314,7.401,7.402V419.598z"/>
	<path fill="#CCE535" d="M614.392,355h-45.171C555.234,355,544,366.396,544,380.404V445h17v-32h53.392
		c4.098,0,6.608,2.941,6.608,7.1V445h18v-24.9c0-6.268-2.283-12.006-6.051-16.434c3.768-4.423,6.051-10.157,6.051-16.418v-6.844
		C639,366.396,628.298,355,614.392,355z M621,387.248c0,4.146-2.512,7.752-6.608,7.752H561v-14.596c0-4.127,4.115-7.404,8.221-7.404
		h45.171c4.098,0,6.608,3.206,6.608,7.404V387.248z"/>
	<path fill="#CCE535" d="M830.619,362.427c-4.857-4.789-11.017-7.427-17.748-7.427h-5.476c-6.299,0-12.064,2.299-16.516,6.094
		c-4.4-3.795-10.105-6.094-16.337-6.094h-5.476C755.103,355,743,366.396,743,380.404V445h18v-64.596
		c0-4.127,3.982-7.404,8.068-7.404h5.476c4.077,0,7.456,3.206,7.456,7.404V445h17v-64.596c0-4.127,4.239-7.404,8.396-7.404h5.477
		c4.148,0,7.129,3.348,7.129,7.404V445h18v-64.596C838,373.645,835.522,367.26,830.619,362.427z"/>
</g>
</svg>
