<?xml version="1.0" encoding="utf-8"?>
<!-- Generator: Adobe Illustrator 16.0.0, SVG Export Plug-In . SVG Version: 6.00 Build 0)  -->
<!DOCTYPE svg PUBLIC "-//W3C//DTD SVG 1.1//EN" "http://www.w3.org/Graphics/SVG/1.1/DTD/svg11.dtd">
<svg version="1.1" id="레이어_1" xmlns="http://www.w3.org/2000/svg" xmlns:xlink="http://www.w3.org/1999/xlink" x="0px"
	 y="0px" width="63.992px" height="62.801px" viewBox="0 0 63.992 62.801" enable-background="new 0 0 63.992 62.801"
	 xml:space="preserve">
<g>
	<path fill-rule="evenodd" clip-rule="evenodd" fill="#CC3627" d="M32.028,58.164C21.731,50.871,12.296,43.146,5.329,32.831
		C1.878,27.704-0.38,22.215,0.053,15.777C0.589,7.76,7.284,0.326,14.488,0.08c8.915-0.299,16.034,5.822,17.02,14.646
		c0.036,0.328,0.133,0.652,0.319,1.525c0.352-0.89,0.59-1.277,0.633-1.683c0.783-7.013,7.074-15.099,16.745-14.542
		c6.307,0.369,12.604,5.785,14.236,12.832c1.488,6.439-0.169,12.308-3.445,17.82c-5.09,8.5-12.165,15.169-19.782,21.309
		C37.576,54.102,34.812,56.059,32.028,58.164z"/>
	<path fill-rule="evenodd" clip-rule="evenodd" fill="#E24F37" d="M32.028,62.801C21.731,55.508,12.296,47.782,5.329,37.467
		C1.878,32.34-0.38,26.851,0.053,20.413C0.589,12.396,7.284,4.962,14.488,4.716c8.915-0.299,16.034,5.823,17.02,14.646
		c0.036,0.328,0.133,0.652,0.319,1.525c0.352-0.89,0.59-1.276,0.633-1.683c0.783-7.012,7.074-15.099,16.745-14.542
		c6.307,0.369,12.604,5.786,14.236,12.833c1.488,6.439-0.169,12.307-3.445,17.819c-5.09,8.501-12.165,15.169-19.782,21.31
		C37.576,58.738,34.812,60.694,32.028,62.801z"/>
</g>
</svg>
