<?xml version="1.0" encoding="utf-8"?>
<!-- Generator: Adobe Illustrator 16.0.0, SVG Export Plug-In . SVG Version: 6.00 Build 0)  -->
<!DOCTYPE svg PUBLIC "-//W3C//DTD SVG 1.1//EN" "http://www.w3.org/Graphics/SVG/1.1/DTD/svg11.dtd">
<svg version="1.1" id="레이어_1" xmlns="http://www.w3.org/2000/svg" xmlns:xlink="http://www.w3.org/1999/xlink" x="0px"
	 y="0px" width="13.579px" height="13.58px" viewBox="0 0 13.579 13.58" enable-background="new 0 0 13.579 13.58"
	 xml:space="preserve">
<g>
	<circle fill="#FFFFFF" cx="2.658" cy="2.658" r="2.658"/>
	<path fill="#FFFFFF" d="M13.579,2.658c0,1.469-1.19,2.657-2.657,2.657c-1.471,0-2.658-1.188-2.658-2.657
		C8.264,1.19,9.451,0,10.922,0C12.389,0,13.579,1.19,13.579,2.658z"/>
	<circle fill="#FFFFFF" cx="2.658" cy="10.922" r="2.658"/>
	<path fill="#FFFFFF" d="M13.579,10.922c0,1.467-1.19,2.658-2.657,2.658c-1.471,0-2.658-1.191-2.658-2.658s1.188-2.657,2.658-2.657
		C12.389,8.265,13.579,9.455,13.579,10.922z"/>
</g>
</svg>
