<?xml version="1.0" encoding="utf-8"?>
<!-- Generator: Adobe Illustrator 16.0.0, SVG Export Plug-In . SVG Version: 6.00 Build 0)  -->
<!DOCTYPE svg PUBLIC "-//W3C//DTD SVG 1.1//EN" "http://www.w3.org/Graphics/SVG/1.1/DTD/svg11.dtd">
<svg version="1.1" id="레이어_1" xmlns="http://www.w3.org/2000/svg" xmlns:xlink="http://www.w3.org/1999/xlink" x="0px"
	 y="0px" width="62.602px" height="65.87px" viewBox="0 0 62.602 65.87" enable-background="new 0 0 62.602 65.87"
	 xml:space="preserve">
<g>
	<path opacity="0.2" fill="#0D0302" d="M52.14,44.948c-3.37,0-6.367,1.598-8.28,4.074l-22.33-11.115
		c0.253-0.902,0.393-1.854,0.393-2.838c0-1.012-0.146-1.989-0.415-2.914l22.327-11.333c1.911,2.491,4.917,4.099,8.302,4.099
		c5.777,0,10.46-4.684,10.46-10.459C62.596,8.685,57.913,4,52.136,4S41.675,8.685,41.675,14.462c0,1,0.143,1.966,0.404,2.883
		L19.742,28.683c-1.913-2.477-4.91-4.072-8.282-4.072C5.685,24.61,1,29.294,1,35.069C1,40.847,5.685,45.53,11.46,45.53
		c3.402,0,6.423-1.623,8.333-4.137l22.302,11.102c-0.269,0.924-0.415,1.902-0.415,2.915c0,5.777,4.683,10.46,10.46,10.46
		s10.462-4.683,10.462-10.46S57.917,44.948,52.14,44.948z"/>
	<path fill="#FFFFFF" d="M51.14,40.948c-3.37,0-6.367,1.598-8.28,4.074l-22.33-11.115c0.253-0.902,0.393-1.854,0.393-2.838
		c0-1.012-0.146-1.989-0.415-2.914l22.327-11.333c1.911,2.491,4.917,4.099,8.302,4.099c5.777,0,10.46-4.684,10.46-10.459
		C61.596,4.685,56.913,0,51.136,0S40.675,4.685,40.675,10.462c0,1,0.143,1.966,0.404,2.883L18.742,24.683
		c-1.913-2.477-4.91-4.072-8.282-4.072C4.685,20.61,0,25.294,0,31.069C0,36.847,4.685,41.53,10.46,41.53
		c3.402,0,6.423-1.623,8.333-4.137l22.302,11.102c-0.269,0.924-0.415,1.902-0.415,2.915c0,5.777,4.683,10.46,10.46,10.46
		s10.462-4.683,10.462-10.46S56.917,40.948,51.14,40.948z"/>
</g>
</svg>
