<?xml version="1.0" encoding="utf-8"?>
<!-- Generator: Adobe Illustrator 16.0.0, SVG Export Plug-In . SVG Version: 6.00 Build 0)  -->
<!DOCTYPE svg PUBLIC "-//W3C//DTD SVG 1.1//EN" "http://www.w3.org/Graphics/SVG/1.1/DTD/svg11.dtd">
<svg version="1.1" id="레이어_1" xmlns="http://www.w3.org/2000/svg" xmlns:xlink="http://www.w3.org/1999/xlink" x="0px"
	 y="0px" width="61.703px" height="59.063px" viewBox="0 0 61.703 59.063" enable-background="new 0 0 61.703 59.063"
	 xml:space="preserve">
<g>
	<path fill-rule="evenodd" clip-rule="evenodd" fill="#CCCCCC" d="M61.703,28.615c0,0.481,0,0.963,0,1.446
		c-1.693,0.284-3.389,0.568-5.291,0.888c0,0.848,0,1.714,0,2.58c0,6.899,0.016,13.796-0.008,20.697
		c-0.01,2.524-1.438,4.672-3.511,4.733c-5.022,0.15-10.053,0.049-15.318,0.049c0-5.387,0-10.559,0-15.751c-4.754,0-9.258,0-14.026,0
		c0,5.374,0,10.539,0,15.801c-4.515,0-8.762,0.016-13.009-0.006c-3.743-0.015-5.276-1.521-5.29-5.215
		c-0.02-6.819-0.004-13.639-0.004-20.456c0-0.85,0-1.697,0-2.441C3.248,30.605,1.625,30.332,0,30.061c0-0.483,0-0.965,0-1.446
		c2.172-2.123,4.334-4.255,6.516-6.365C13.721,15.292,20.915,8.325,28.15,1.399c1.879-1.804,3.449-1.87,5.229-0.161
		C42.841,10.338,52.267,19.484,61.703,28.615z"/>
</g>
</svg>
