<?xml version="1.0" encoding="utf-8"?>
<!-- Generator: Adobe Illustrator 16.0.0, SVG Export Plug-In . SVG Version: 6.00 Build 0)  -->
<!DOCTYPE svg PUBLIC "-//W3C//DTD SVG 1.1//EN" "http://www.w3.org/Graphics/SVG/1.1/DTD/svg11.dtd">
<svg version="1.1" id="레이어_1" xmlns="http://www.w3.org/2000/svg" xmlns:xlink="http://www.w3.org/1999/xlink" x="0px"
	 y="0px" width="77.484px" height="17.646px" viewBox="0 0 77.484 17.646" enable-background="new 0 0 77.484 17.646"
	 xml:space="preserve">
<g>
	<path fill="#CCE535" d="M13.862,0H5.006C3.688,0,2.441,0.518,1.487,1.456C0.525,2.404,0,3.656,0,4.98v12.665h3.452v-5.754h11.892
		v5.754h3.452V4.98C18.796,2.234,16.621,0,13.862,0z M15.344,8.056H3.452V4.98c0-0.795,0.74-1.527,1.554-1.527h8.856
		c0.808,0,1.481,0.732,1.481,1.527V8.056z"/>
	<path fill="#CCE535" d="M57.921,4.879C57.921,2.186,55.736,0,53.042,0h-8.654c-2.693,0-4.879,2.186-4.879,4.879v7.888
		c0,2.694,2.185,4.88,4.879,4.88h8.655c2.693,0,4.879-2.186,4.879-4.88L57.921,4.879L57.921,4.879z M54.469,12.742
		c0,0.801-0.649,1.451-1.451,1.451h-8.605c-0.801,0-1.451-0.65-1.451-1.451V4.904c0-0.802,0.65-1.451,1.451-1.451h8.605
		c0.802,0,1.451,0.649,1.451,1.451V12.742z"/>
	<path fill="#CCE535" d="M33.721,0h-8.855c-2.742,0-4.919,2.234-4.919,4.98v12.665h3.452v-6.138h10.322
		c0.804,0,1.186,0.439,1.186,1.256v4.882h3.452v-4.882c0-1.229-0.448-2.354-1.187-3.223c0.738-0.866,1.187-1.99,1.187-3.219V4.98
		C38.358,2.234,36.447,0,33.721,0z M34.906,6.322c0,0.813-0.382,1.35-1.186,1.35H23.398V4.98c0-0.809,0.662-1.527,1.467-1.527h8.855
		c0.804,0,1.186,0.705,1.186,1.527V6.322L34.906,6.322z"/>
	<path fill="#CCE535" d="M76.075,1.456C75.123,0.518,73.953,0,72.634,0H71.56c-1.235,0-2.365,0.451-3.237,1.195
		C67.46,0.451,66.342,0,65.119,0h-1.073c-2.737,0-4.974,2.234-4.974,4.98v12.665h3.452V4.98c0-0.809,0.721-1.527,1.522-1.527h1.072
		c0.8,0,1.625,0.705,1.625,1.527v12.665h3.068V4.98c0-0.809,0.934-1.527,1.748-1.527h1.073c0.813,0,1.398,0.732,1.398,1.527v12.665
		h3.452V4.98C77.484,3.656,77.037,2.404,76.075,1.456z"/>
</g>
</svg>
