<?xml version="1.0" encoding="UTF-8"?>
<svg width="16px" height="18px" viewBox="0 0 16 18" version="1.1" xmlns="http://www.w3.org/2000/svg" xmlns:xlink="http://www.w3.org/1999/xlink">
    <!-- Generator: sketchtool 50.2 (55047) - http://www.bohemiancoding.com/sketch -->
    <title>386AAB8E-937D-4782-BC87-60D1E1B555B8</title>
    <desc>Created with sketchtool.</desc>
    <defs></defs>
    <g id="Page-1" stroke="none" stroke-width="1" fill="none" fill-rule="evenodd">
        <g id="2" transform="translate(-292.000000, -331.000000)" fill="#FFFFFF" fill-rule="nonzero">
            <g id="Group-6" transform="translate(280.000000, 320.000000)">
                <g id="ic/power" transform="translate(12.000000, 11.000000)">
                    <path d="M0.0500633484,10.6714286 C-0.210570136,7.8244898 0.98761991,5.24571429 2.97495023,3.60734694 C3.74961086,2.96816327 4.9079819,3.5155102 4.9079819,4.52571429 C4.9079819,4.89673469 4.73422624,5.23836735 4.4518733,5.46979592 C3.04372851,6.63428571 2.19666968,8.47102041 2.40300452,10.4987755 C2.67087783,13.14 4.7559457,15.2779592 7.35504072,15.5718367 C10.7468959,15.957551 13.6283439,13.2612245 13.6283439,9.89632653 C13.6283439,8.11102041 12.8138643,6.51306122 11.543276,5.46612245 C11.2609231,5.23469388 11.0907873,4.89306122 11.0907873,4.52571429 C11.0907873,3.52653061 12.2310588,2.96081633 12.9984796,3.58530612 C14.8156742,5.07306122 15.9812851,7.34693878 15.9812851,9.89632653 C15.9812851,14.5579592 12.0790226,18.3159184 7.41295928,17.9742857 C3.55413575,17.6987755 0.408434389,14.58 0.0500633484,10.6714286 Z M7.99576471,0 C7.344181,0 6.81929412,0.536326531 6.81929412,1.19387755 L6.81929412,6.69306122 C6.81929412,7.35428571 7.3478009,7.88693878 7.99576471,7.88693878 C8.64372851,7.88693878 9.17223529,7.35061224 9.17223529,6.69306122 L9.17223529,1.19387755 C9.17223529,0.536326531 8.64734842,0 7.99576471,0 Z" id="Shape"></path>
                </g>
            </g>
        </g>
    </g>
</svg>