<?xml version="1.0" encoding="utf-8"?>
<!-- Generator: Adobe Illustrator 16.0.0, SVG Export Plug-In . SVG Version: 6.00 Build 0)  -->
<!DOCTYPE svg PUBLIC "-//W3C//DTD SVG 1.1//EN" "http://www.w3.org/Graphics/SVG/1.1/DTD/svg11.dtd">
<svg version="1.1" id="레이어_1" xmlns="http://www.w3.org/2000/svg" xmlns:xlink="http://www.w3.org/1999/xlink" x="0px"
	 y="0px" width="63.851px" height="63.858px" viewBox="608.527 368.553 63.851 63.858"
	 enable-background="new 608.527 368.553 63.851 63.858" xml:space="preserve">
<path fill="#FFFFFF" d="M608.527,429.217c0-19.16,0-38.315,0-57.471c0.039-0.109,0.084-0.219,0.108-0.342
	c0.281-1.236,1-2.103,2.187-2.576c0.291-0.109,0.598-0.18,0.897-0.275c19.156,0,38.31,0,57.467,0
	c0.115,0.039,0.226,0.088,0.343,0.115c1.239,0.275,2.112,1,2.573,2.188c0.115,0.286,0.187,0.596,0.275,0.891
	c0,19.154,0,38.311,0,57.471c-0.039,0.09-0.09,0.187-0.109,0.281c-0.25,1.258-0.959,2.131-2.143,2.617
	c-0.299,0.121-0.625,0.19-0.939,0.295c-5.502,0-11.004,0-16.506,0c0-8.105-0.006-16.213-0.006-24.305
	c0-0.121,0.025-0.238,0.045-0.396c0.219,0,0.408,0,0.603,0c2.383,0,4.776-0.006,7.155,0c0.31,0,0.474-0.045,0.519-0.397
	c0.367-2.938,0.731-5.875,1.133-8.806c0.057-0.436-0.064-0.512-0.465-0.512c-2.795,0.012-5.592,0.006-8.388,0.006
	c-0.192,0-0.377,0-0.569,0c-0.021-0.188-0.031-0.297-0.031-0.397c0-1.994-0.02-3.982,0.012-5.978
	c0.007-0.615,0.084-1.238,0.228-1.846c0.233-1.047,0.875-1.834,1.924-2.123c0.816-0.23,1.691-0.359,2.541-0.394
	c1.535-0.057,3.072-0.024,4.607-0.006c0.37,0,0.536-0.084,0.536-0.506c-0.02-2.584-0.02-5.17,0-7.754
	c0-0.402-0.153-0.512-0.53-0.531c-1.08-0.059-2.154-0.18-3.232-0.211c-2.133-0.059-4.283-0.227-6.412,0.139
	c-3.108,0.527-5.721,1.906-7.549,4.548c-1.525,2.207-2.143,4.715-2.182,7.36c-0.039,2.367-0.015,4.74-0.015,7.113
	c0,0.18,0,0.352,0,0.584c-0.221,0-0.383,0-0.543,0c-2.448,0-4.895,0.006-7.342-0.006c-0.371,0-0.5,0.096-0.492,0.486
	c0.013,2.918,0.013,5.836,0,8.754c-0.008,0.391,0.121,0.479,0.492,0.475c2.447-0.006,4.894,0,7.342,0c0.16,0,0.322,0,0.543,0
	c0,0.236,0,0.43,0,0.627c0,7.824,0,15.654,0,23.484c0,0.19,0.025,0.391,0.039,0.59c-10.307,0-20.616,0-30.922,0
	c-0.084-0.039-0.16-0.09-0.244-0.109c-1.27-0.229-2.162-0.949-2.653-2.143C608.701,429.852,608.623,429.529,608.527,429.217z"/>
</svg>
