<?xml version="1.0" encoding="utf-8"?>
<!-- Generator: Adobe Illustrator 16.0.0, SVG Export Plug-In . SVG Version: 6.00 Build 0)  -->
<!DOCTYPE svg PUBLIC "-//W3C//DTD SVG 1.1//EN" "http://www.w3.org/Graphics/SVG/1.1/DTD/svg11.dtd">
<svg version="1.1" id="레이어_1" xmlns="http://www.w3.org/2000/svg" xmlns:xlink="http://www.w3.org/1999/xlink" x="0px"
	 y="0px" width="192.729px" height="136.873px" viewBox="543.634 339.226 192.729 136.873"
	 enable-background="new 543.634 339.226 192.729 136.873" xml:space="preserve">
<g>
	<path fill="#CCE535" d="M543.634,379.259l15.469,15.469c44.552-44.551,115.012-43.401,158.409,0c0.52,0.52,0.28-0.899,2.748,1.585
		l16.103-16.102c-2.469-2.48-1.831-0.64-2.143-0.952C681.935,326.97,598.089,324.804,543.634,379.259z"/>
	<path fill="#CCE535" d="M575.824,411.449l17.33,17.33c27.394-27.063,66.854-24.724,91.87,0.291
		c0.211,0.211-0.646-1.828,1.826,0.649l17.032-17.033c-2.471-2.478-1.633-0.426-1.844-0.637
		C667.563,377.574,610.81,377.134,575.824,411.449z"/>
	<path fill="#CCE535" d="M611.717,447.342l28.757,28.757l27.816-27.814c-2.472-2.479-1.613-0.439-1.828-0.651
		C651.7,432.873,626.735,432.654,611.717,447.342z"/>
</g>
</svg>
