<?xml version="1.0" encoding="utf-8"?>
<!-- Generator: Adobe Illustrator 16.0.0, SVG Export Plug-In . SVG Version: 6.00 Build 0)  -->
<!DOCTYPE svg PUBLIC "-//W3C//DTD SVG 1.1//EN" "http://www.w3.org/Graphics/SVG/1.1/DTD/svg11.dtd">
<svg version="1.1" id="레이어_1" xmlns="http://www.w3.org/2000/svg" xmlns:xlink="http://www.w3.org/1999/xlink" x="0px"
	 y="0px" width="202.001px" height="46.001px" viewBox="539 377 202.001 46.001" enable-background="new 539 377 202.001 46.001"
	 xml:space="preserve">
<g>
	<path fill="#CCE535" d="M575.14,377h-23.088c-3.439,0-6.689,1.348-9.175,3.795c-2.508,2.471-3.877,5.734-3.877,9.189V423h9v-15h31
		v15h9v-33.016C588,382.825,582.333,377,575.14,377z M579,398h-31v-8.016c0-2.073,1.931-3.984,4.052-3.984h23.088
		c2.105,0,3.86,1.911,3.86,3.984V398z"/>
	<path fill="#CCE535" d="M690,389.72c0-7.023-5.695-12.72-12.72-12.72H654.72c-7.023,0-12.72,5.695-12.72,12.72v20.562
		c0,7.023,5.695,12.72,12.72,12.72h22.562c7.023,0,12.72-5.695,12.72-12.72L690,389.72L690,389.72z M681,410.217
		c0,2.09-1.693,3.783-3.783,3.783h-22.434c-2.09,0-3.783-1.693-3.783-3.783v-20.434c0-2.09,1.693-3.783,3.783-3.783h22.434
		c2.09,0,3.783,1.693,3.783,3.783V410.217z"/>
	<path fill="#CCE535" d="M626.911,377h-23.087c-7.148,0-12.824,5.825-12.824,12.984V423h9v-16h26.911
		c2.094,0,3.089,1.147,3.089,3.273V423h9v-12.727c0-3.204-1.167-6.138-3.093-8.399c1.926-2.261,3.093-5.191,3.093-8.392v-3.498
		C639,382.825,634.019,377,626.911,377z M630,393.482c0,2.118-0.995,3.518-3.089,3.518H600v-7.016c0-2.109,1.726-3.984,3.824-3.984
		h23.087c2.094,0,3.089,1.839,3.089,3.984V393.482L630,393.482z"/>
	<path fill="#CCE535" d="M737.328,380.796c-2.482-2.448-5.531-3.796-8.972-3.796h-2.8c-3.219,0-6.166,1.175-8.439,3.114
		c-2.25-1.939-5.166-3.114-8.352-3.114h-2.798C698.83,377,693,382.825,693,389.984V423h9v-33.016c0-2.109,1.88-3.984,3.969-3.984
		h2.798c2.084,0,4.233,1.839,4.233,3.984V423h8v-33.016c0-2.109,2.434-3.984,4.558-3.984h2.799c2.12,0,3.645,1.911,3.645,3.984V423
		h9v-33.016C741,386.529,739.834,383.266,737.328,380.796z"/>
</g>
</svg>
